<mxfile host="app.diagrams.net" modified="2021-02-05T13:50:50.763Z" agent="5.0 (Windows NT 10.0; Win64; x64) AppleWebKit/537.36 (KHTML, like Gecko) Chrome/88.0.4324.150 Safari/537.36" etag="0hIRmPu2-F4D5DhVpgXP" version="14.2.9" type="github">
  <diagram id="O2zfCDv1q0HYrS_gBMY3" name="Page-1">
    <mxGraphModel dx="1011" dy="935" grid="1" gridSize="10" guides="1" tooltips="1" connect="1" arrows="1" fold="1" page="1" pageScale="1" pageWidth="827" pageHeight="1169" math="0" shadow="0">
      <root>
        <mxCell id="0" />
        <mxCell id="1" parent="0" />
        <mxCell id="fNwL-nX66jxnSufY_jZQ-8" value="" style="whiteSpace=wrap;html=1;aspect=fixed;" vertex="1" parent="1">
          <mxGeometry x="65" y="1880" width="720" height="720" as="geometry" />
        </mxCell>
        <mxCell id="fNwL-nX66jxnSufY_jZQ-6" value="" style="whiteSpace=wrap;html=1;aspect=fixed;" vertex="1" parent="1">
          <mxGeometry x="65" y="960" width="720" height="720" as="geometry" />
        </mxCell>
        <mxCell id="fNwL-nX66jxnSufY_jZQ-3" value="" style="whiteSpace=wrap;html=1;aspect=fixed;" vertex="1" parent="1">
          <mxGeometry x="60" y="90" width="720" height="720" as="geometry" />
        </mxCell>
        <mxCell id="fNwL-nX66jxnSufY_jZQ-1" value="index.html/Home Page" style="text;html=1;strokeColor=none;fillColor=none;align=center;verticalAlign=middle;whiteSpace=wrap;rounded=0;" vertex="1" parent="1">
          <mxGeometry x="50" y="20" width="200" height="20" as="geometry" />
        </mxCell>
        <mxCell id="fNwL-nX66jxnSufY_jZQ-5" value="about.html/About Me Page" style="text;html=1;strokeColor=none;fillColor=none;align=center;verticalAlign=middle;whiteSpace=wrap;rounded=0;" vertex="1" parent="1">
          <mxGeometry x="55" y="890" width="200" height="20" as="geometry" />
        </mxCell>
        <mxCell id="fNwL-nX66jxnSufY_jZQ-7" value="contact.html/Contact Me Page" style="text;html=1;strokeColor=none;fillColor=none;align=center;verticalAlign=middle;whiteSpace=wrap;rounded=0;" vertex="1" parent="1">
          <mxGeometry x="55" y="1810" width="200" height="20" as="geometry" />
        </mxCell>
        <mxCell id="fNwL-nX66jxnSufY_jZQ-9" value="Sanjay&#39;s Website (Title)" style="rounded=0;whiteSpace=wrap;html=1;" vertex="1" parent="1">
          <mxGeometry x="102.5" y="120" width="645" height="90" as="geometry" />
        </mxCell>
        <mxCell id="fNwL-nX66jxnSufY_jZQ-11" value="Sanjay&#39;s Website (Title)" style="rounded=0;whiteSpace=wrap;html=1;" vertex="1" parent="1">
          <mxGeometry x="102.5" y="1010" width="645" height="90" as="geometry" />
        </mxCell>
        <mxCell id="fNwL-nX66jxnSufY_jZQ-12" value="Sanjay&#39;s Website (Title)" style="rounded=0;whiteSpace=wrap;html=1;" vertex="1" parent="1">
          <mxGeometry x="102.5" y="1920" width="645" height="90" as="geometry" />
        </mxCell>
        <mxCell id="fNwL-nX66jxnSufY_jZQ-13" value="Home&amp;nbsp; &amp;nbsp; &amp;nbsp; &amp;nbsp; |&amp;nbsp; &amp;nbsp; &amp;nbsp; &amp;nbsp; &amp;nbsp;About&amp;nbsp; &amp;nbsp; &amp;nbsp; &amp;nbsp; |&amp;nbsp; &amp;nbsp; &amp;nbsp; &amp;nbsp; Contact" style="rounded=0;whiteSpace=wrap;html=1;" vertex="1" parent="1">
          <mxGeometry x="100" y="230" width="650" height="50" as="geometry" />
        </mxCell>
        <mxCell id="fNwL-nX66jxnSufY_jZQ-14" value="Home&amp;nbsp; &amp;nbsp; &amp;nbsp; &amp;nbsp; |&amp;nbsp; &amp;nbsp; &amp;nbsp; &amp;nbsp; &amp;nbsp;About&amp;nbsp; &amp;nbsp; &amp;nbsp; &amp;nbsp; |&amp;nbsp; &amp;nbsp; &amp;nbsp; &amp;nbsp; Contact" style="rounded=0;whiteSpace=wrap;html=1;" vertex="1" parent="1">
          <mxGeometry x="100" y="1130" width="650" height="50" as="geometry" />
        </mxCell>
        <mxCell id="fNwL-nX66jxnSufY_jZQ-15" value="Home&amp;nbsp; &amp;nbsp; &amp;nbsp; &amp;nbsp; |&amp;nbsp; &amp;nbsp; &amp;nbsp; &amp;nbsp; &amp;nbsp;About&amp;nbsp; &amp;nbsp; &amp;nbsp; &amp;nbsp; |&amp;nbsp; &amp;nbsp; &amp;nbsp; &amp;nbsp; Contact" style="rounded=0;whiteSpace=wrap;html=1;" vertex="1" parent="1">
          <mxGeometry x="100" y="2040" width="650" height="50" as="geometry" />
        </mxCell>
        <mxCell id="fNwL-nX66jxnSufY_jZQ-16" value="Welcome (Title)" style="rounded=1;whiteSpace=wrap;html=1;" vertex="1" parent="1">
          <mxGeometry x="102.5" y="320" width="340" height="60" as="geometry" />
        </mxCell>
        <mxCell id="fNwL-nX66jxnSufY_jZQ-18" value="Main Text about the site" style="rounded=0;whiteSpace=wrap;html=1;" vertex="1" parent="1">
          <mxGeometry x="110" y="430" width="640" height="110" as="geometry" />
        </mxCell>
        <mxCell id="fNwL-nX66jxnSufY_jZQ-19" value="images" style="whiteSpace=wrap;html=1;aspect=fixed;" vertex="1" parent="1">
          <mxGeometry x="120" y="570" width="190" height="190" as="geometry" />
        </mxCell>
        <mxCell id="fNwL-nX66jxnSufY_jZQ-20" value="images" style="whiteSpace=wrap;html=1;aspect=fixed;" vertex="1" parent="1">
          <mxGeometry x="340" y="570" width="190" height="190" as="geometry" />
        </mxCell>
        <mxCell id="fNwL-nX66jxnSufY_jZQ-21" value="images" style="whiteSpace=wrap;html=1;aspect=fixed;" vertex="1" parent="1">
          <mxGeometry x="550" y="570" width="190" height="190" as="geometry" />
        </mxCell>
        <mxCell id="fNwL-nX66jxnSufY_jZQ-22" value="About Me (Title)" style="rounded=1;whiteSpace=wrap;html=1;" vertex="1" parent="1">
          <mxGeometry x="102.5" y="1230" width="340" height="60" as="geometry" />
        </mxCell>
        <mxCell id="fNwL-nX66jxnSufY_jZQ-23" value="Information about me&amp;nbsp;&lt;br&gt;" style="rounded=0;whiteSpace=wrap;html=1;" vertex="1" parent="1">
          <mxGeometry x="100" y="1340" width="650" height="210" as="geometry" />
        </mxCell>
        <mxCell id="fNwL-nX66jxnSufY_jZQ-24" value="Contact Me (Title)" style="rounded=1;whiteSpace=wrap;html=1;" vertex="1" parent="1">
          <mxGeometry x="102.5" y="2130" width="340" height="60" as="geometry" />
        </mxCell>
        <mxCell id="fNwL-nX66jxnSufY_jZQ-25" value="contact details" style="rounded=0;whiteSpace=wrap;html=1;" vertex="1" parent="1">
          <mxGeometry x="102.5" y="2230" width="647.5" height="130" as="geometry" />
        </mxCell>
        <mxCell id="fNwL-nX66jxnSufY_jZQ-26" value="logo/link&lt;br&gt;linkedIn" style="ellipse;whiteSpace=wrap;html=1;" vertex="1" parent="1">
          <mxGeometry x="120" y="2430" width="120" height="80" as="geometry" />
        </mxCell>
        <mxCell id="fNwL-nX66jxnSufY_jZQ-27" value="logo/link&lt;br&gt;GitHub" style="ellipse;whiteSpace=wrap;html=1;" vertex="1" parent="1">
          <mxGeometry x="360" y="2430" width="120" height="80" as="geometry" />
        </mxCell>
        <mxCell id="fNwL-nX66jxnSufY_jZQ-28" value="logo/link&lt;br&gt;Twitter" style="ellipse;whiteSpace=wrap;html=1;" vertex="1" parent="1">
          <mxGeometry x="610" y="2430" width="120" height="80" as="geometry" />
        </mxCell>
      </root>
    </mxGraphModel>
  </diagram>
</mxfile>
